<svg width="110" height="110" viewBox="0 0 110 110" fill="none" xmlns="http://www.w3.org/2000/svg">
<rect width="110" height="110" rx="10" fill="white"/>
<path d="M23.96 51.32C22.7867 51.32 21.7733 51.1133 20.92 50.7C20.0667 50.2867 19.3933 49.7133 18.9 48.98C18.42 48.2333 18.14 47.3667 18.06 46.38L20.7 46.22C20.78 46.8333 20.9533 47.3533 21.22 47.78C21.5 48.2067 21.8667 48.5333 22.32 48.76C22.7867 48.9733 23.3467 49.08 24 49.08C24.56 49.08 25.0333 49.0133 25.42 48.88C25.82 48.7333 26.12 48.5267 26.32 48.26C26.5333 47.98 26.64 47.64 26.64 47.24C26.64 46.88 26.5533 46.56 26.38 46.28C26.2067 45.9867 25.8733 45.7267 25.38 45.5C24.8867 45.26 24.1533 45.0267 23.18 44.8C22.0067 44.5333 21.0667 44.2333 20.36 43.9C19.6533 43.5533 19.14 43.1267 18.82 42.62C18.5 42.1 18.34 41.4533 18.34 40.68C18.34 39.8533 18.5467 39.1267 18.96 38.5C19.3733 37.86 19.96 37.3667 20.72 37.02C21.48 36.66 22.3933 36.48 23.46 36.48C24.5933 36.48 25.5533 36.6867 26.34 37.1C27.1267 37.5 27.7467 38.0533 28.2 38.76C28.6533 39.4667 28.9333 40.28 29.04 41.2L26.42 41.32C26.3533 40.8 26.1933 40.3467 25.94 39.96C25.7 39.5733 25.3667 39.2733 24.94 39.06C24.5267 38.8333 24.02 38.72 23.42 38.72C22.6733 38.72 22.08 38.8933 21.64 39.24C21.2133 39.5733 21 40.02 21 40.58C21 40.9667 21.0867 41.2867 21.26 41.54C21.4467 41.7933 21.7733 42.0133 22.24 42.2C22.7067 42.3733 23.36 42.56 24.2 42.76C25.4667 43.0267 26.4733 43.3667 27.22 43.78C27.9667 44.1933 28.5 44.6733 28.82 45.22C29.14 45.7667 29.3 46.3933 29.3 47.1C29.3 47.9667 29.08 48.72 28.64 49.36C28.2 49.9867 27.58 50.4733 26.78 50.82C25.98 51.1533 25.04 51.32 23.96 51.32ZM36.5752 51.24C35.5218 51.24 34.5952 51.0133 33.7952 50.56C33.0085 50.0933 32.3952 49.44 31.9552 48.6C31.5285 47.76 31.3152 46.78 31.3152 45.66C31.3152 44.5267 31.5285 43.5467 31.9552 42.72C32.3952 41.88 33.0085 41.2333 33.7952 40.78C34.5952 40.3133 35.5218 40.08 36.5752 40.08C37.6285 40.08 38.5485 40.3133 39.3352 40.78C40.1218 41.2333 40.7285 41.88 41.1552 42.72C41.5952 43.5467 41.8152 44.5267 41.8152 45.66C41.8152 46.78 41.5952 47.76 41.1552 48.6C40.7285 49.44 40.1218 50.0933 39.3352 50.56C38.5485 51.0133 37.6285 51.24 36.5752 51.24ZM36.5752 49.16C37.4018 49.16 38.0352 48.8533 38.4752 48.24C38.9285 47.6267 39.1552 46.7667 39.1552 45.66C39.1552 44.5667 38.9285 43.7133 38.4752 43.1C38.0352 42.4733 37.4018 42.16 36.5752 42.16C35.7485 42.16 35.1085 42.4733 34.6552 43.1C34.2018 43.7133 33.9752 44.5667 33.9752 45.66C33.9752 46.7667 34.2018 47.6267 34.6552 48.24C35.1085 48.8533 35.7485 49.16 36.5752 49.16ZM49.5306 51.24C48.784 51.24 48.1306 51.08 47.5706 50.76C47.024 50.44 46.5973 49.9933 46.2906 49.42L46.2306 51H43.7906V36.8H46.3506V41.84C46.644 41.3467 47.064 40.9333 47.6106 40.6C48.1573 40.2533 48.7973 40.08 49.5306 40.08C50.4506 40.08 51.244 40.3133 51.9106 40.78C52.5906 41.2333 53.1106 41.88 53.4706 42.72C53.844 43.5467 54.0306 44.5267 54.0306 45.66C54.0306 46.7933 53.844 47.78 53.4706 48.62C53.1106 49.4467 52.5906 50.0933 51.9106 50.56C51.244 51.0133 50.4506 51.24 49.5306 51.24ZM48.9506 49.16C49.684 49.16 50.2706 48.8533 50.7106 48.24C51.1506 47.6133 51.3706 46.7533 51.3706 45.66C51.3706 44.5533 51.1506 43.6933 50.7106 43.08C50.284 42.4667 49.704 42.16 48.9706 42.16C48.424 42.16 47.9506 42.3 47.5506 42.58C47.164 42.8467 46.864 43.24 46.6506 43.76C46.4506 44.28 46.3506 44.9133 46.3506 45.66C46.3506 46.38 46.4506 47.0067 46.6506 47.54C46.864 48.06 47.164 48.46 47.5506 48.74C47.9373 49.02 48.404 49.16 48.9506 49.16ZM56.0172 51V40.32H58.5772V51H56.0172ZM55.9772 38.9V36.62H58.6372V38.9H55.9772ZM65.0042 51C63.9376 51 63.1509 50.7533 62.6442 50.26C62.1509 49.7667 61.9042 48.9933 61.9042 47.94V37.82H64.4642V47.7C64.4642 48.1933 64.5709 48.54 64.7842 48.74C64.9976 48.9267 65.3309 49.02 65.7842 49.02H67.2842V51H65.0042ZM60.2242 42.3V40.32H67.2842V42.3H60.2242ZM18.6 73V58.8H24.1C25.7667 58.8 27.0667 59.2 28 60C28.9333 60.8 29.4 61.9067 29.4 63.32C29.4 64.2667 29.1867 65.0867 28.76 65.78C28.3333 66.46 27.7267 66.98 26.94 67.34C26.1533 67.7 25.2067 67.88 24.1 67.88H21.2V73H18.6ZM21.2 65.62H23.98C24.86 65.62 25.5333 65.4267 26 65.04C26.48 64.6533 26.72 64.08 26.72 63.32C26.72 62.5733 26.48 62.0133 26 61.64C25.5333 61.2533 24.86 61.06 23.98 61.06H21.2V65.62ZM31.5445 73V62.32H33.9445L34.0445 65.28L33.8245 65.24C33.9845 64.2133 34.2845 63.4733 34.7245 63.02C35.1779 62.5533 35.7912 62.32 36.5645 62.32H37.5445V64.52H36.5445C35.9979 64.52 35.5445 64.6 35.1845 64.76C34.8245 64.92 34.5512 65.1733 34.3645 65.52C34.1912 65.8533 34.1045 66.2933 34.1045 66.84V73H31.5445ZM42.1055 73.24C40.9855 73.24 40.0855 72.9867 39.4055 72.48C38.7255 71.96 38.3855 71.24 38.3855 70.32C38.3855 69.4 38.6721 68.68 39.2455 68.16C39.8188 67.64 40.6921 67.2667 41.8655 67.04L45.4055 66.34C45.4055 65.58 45.2321 65.0133 44.8855 64.64C44.5388 64.2533 44.0255 64.06 43.3455 64.06C42.7321 64.06 42.2455 64.2067 41.8855 64.5C41.5388 64.78 41.2988 65.1867 41.1655 65.72L38.5655 65.6C38.7788 64.4667 39.2988 63.6 40.1255 63C40.9521 62.3867 42.0255 62.08 43.3455 62.08C44.8655 62.08 46.0121 62.4667 46.7855 63.24C47.5721 64 47.9655 65.0933 47.9655 66.52V70.4C47.9655 70.68 48.0121 70.8733 48.1055 70.98C48.2121 71.0867 48.3655 71.14 48.5655 71.14H48.9055V73C48.8255 73.0267 48.6921 73.0467 48.5055 73.06C48.3321 73.0733 48.1521 73.08 47.9655 73.08C47.5255 73.08 47.1321 73.0133 46.7855 72.88C46.4388 72.7333 46.1721 72.4867 45.9855 72.14C45.7988 71.78 45.7055 71.2933 45.7055 70.68L45.9255 70.84C45.8188 71.3067 45.5855 71.7267 45.2255 72.1C44.8788 72.46 44.4388 72.74 43.9055 72.94C43.3721 73.14 42.7721 73.24 42.1055 73.24ZM42.6255 71.38C43.1988 71.38 43.6921 71.2667 44.1055 71.04C44.5188 70.8133 44.8388 70.5 45.0655 70.1C45.2921 69.7 45.4055 69.2267 45.4055 68.68V68.08L42.6455 68.64C42.0721 68.76 41.6588 68.94 41.4055 69.18C41.1655 69.4067 41.0455 69.7067 41.0455 70.08C41.0455 70.4933 41.1788 70.8133 41.4455 71.04C41.7255 71.2667 42.1188 71.38 42.6255 71.38ZM54.7908 73.24C53.7374 73.24 52.8508 73.0867 52.1308 72.78C51.4241 72.4733 50.8774 72.0467 50.4908 71.5C50.1041 70.9533 49.8841 70.3333 49.8308 69.64L52.4508 69.52C52.5441 70.08 52.7774 70.5133 53.1508 70.82C53.5241 71.1267 54.0774 71.28 54.8108 71.28C55.4108 71.28 55.8774 71.1867 56.2108 71C56.5574 70.8 56.7308 70.4933 56.7308 70.08C56.7308 69.84 56.6708 69.64 56.5508 69.48C56.4308 69.32 56.2041 69.18 55.8708 69.06C55.5374 68.94 55.0441 68.82 54.3908 68.7C53.2974 68.5133 52.4374 68.2867 51.8108 68.02C51.1841 67.74 50.7374 67.3933 50.4708 66.98C50.2174 66.5667 50.0908 66.0533 50.0908 65.44C50.0908 64.44 50.4708 63.6333 51.2308 63.02C52.0041 62.3933 53.1308 62.08 54.6108 62.08C55.5708 62.08 56.3774 62.24 57.0308 62.56C57.6841 62.8667 58.1908 63.2933 58.5508 63.84C58.9241 64.3733 59.1574 64.9867 59.2508 65.68L56.6708 65.8C56.6041 65.44 56.4841 65.1267 56.3108 64.86C56.1374 64.5933 55.9041 64.3933 55.6108 64.26C55.3174 64.1133 54.9708 64.04 54.5708 64.04C53.9708 64.04 53.5174 64.16 53.2108 64.4C52.9041 64.64 52.7508 64.96 52.7508 65.36C52.7508 65.64 52.8174 65.8733 52.9508 66.06C53.0974 66.2467 53.3308 66.4 53.6508 66.52C53.9708 66.6267 54.3974 66.7267 54.9308 66.82C56.0508 66.9933 56.9308 67.22 57.5708 67.5C58.2241 67.7667 58.6841 68.1133 58.9508 68.54C59.2308 68.9533 59.3708 69.4533 59.3708 70.04C59.3708 70.72 59.1774 71.3 58.7908 71.78C58.4174 72.26 57.8841 72.6267 57.1908 72.88C56.5108 73.12 55.7108 73.24 54.7908 73.24ZM64.625 73.24C63.505 73.24 62.605 72.9867 61.925 72.48C61.245 71.96 60.905 71.24 60.905 70.32C60.905 69.4 61.1917 68.68 61.765 68.16C62.3383 67.64 63.2117 67.2667 64.385 67.04L67.925 66.34C67.925 65.58 67.7517 65.0133 67.405 64.64C67.0583 64.2533 66.545 64.06 65.865 64.06C65.2517 64.06 64.765 64.2067 64.405 64.5C64.0583 64.78 63.8183 65.1867 63.685 65.72L61.085 65.6C61.2983 64.4667 61.8183 63.6 62.645 63C63.4717 62.3867 64.545 62.08 65.865 62.08C67.385 62.08 68.5317 62.4667 69.305 63.24C70.0917 64 70.485 65.0933 70.485 66.52V70.4C70.485 70.68 70.5317 70.8733 70.625 70.98C70.7317 71.0867 70.885 71.14 71.085 71.14H71.425V73C71.345 73.0267 71.2117 73.0467 71.025 73.06C70.8517 73.0733 70.6717 73.08 70.485 73.08C70.045 73.08 69.6517 73.0133 69.305 72.88C68.9583 72.7333 68.6917 72.4867 68.505 72.14C68.3183 71.78 68.225 71.2933 68.225 70.68L68.445 70.84C68.3383 71.3067 68.105 71.7267 67.745 72.1C67.3983 72.46 66.9583 72.74 66.425 72.94C65.8917 73.14 65.2917 73.24 64.625 73.24ZM65.145 71.38C65.7183 71.38 66.2117 71.2667 66.625 71.04C67.0383 70.8133 67.3583 70.5 67.585 70.1C67.8117 69.7 67.925 69.2267 67.925 68.68V68.08L65.165 68.64C64.5917 68.76 64.1783 68.94 63.925 69.18C63.685 69.4067 63.565 69.7067 63.565 70.08C63.565 70.4933 63.6983 70.8133 63.965 71.04C64.245 71.2667 64.6383 71.38 65.145 71.38ZM76.7703 73.24C75.8636 73.24 75.077 73.0133 74.4103 72.56C73.757 72.1067 73.2503 71.46 72.8903 70.62C72.5303 69.78 72.3503 68.7933 72.3503 67.66C72.3503 66.5267 72.5303 65.54 72.8903 64.7C73.2503 63.86 73.7636 63.2133 74.4303 62.76C75.097 62.3067 75.877 62.08 76.7703 62.08C77.517 62.08 78.1703 62.2333 78.7303 62.54C79.3036 62.8467 79.737 63.28 80.0303 63.84V58.8H82.5903V73H80.1503L80.0903 71.42C79.797 71.9933 79.357 72.44 78.7703 72.76C78.1836 73.08 77.517 73.24 76.7703 73.24ZM77.5503 71.16C78.0836 71.16 78.5303 71.0267 78.8903 70.76C79.2636 70.4933 79.5436 70.1 79.7303 69.58C79.9303 69.0467 80.0303 68.4067 80.0303 67.66C80.0303 66.9 79.9303 66.26 79.7303 65.74C79.5436 65.22 79.2636 64.8267 78.8903 64.56C78.5303 64.2933 78.0836 64.16 77.5503 64.16C76.777 64.16 76.157 64.4733 75.6903 65.1C75.237 65.7133 75.0103 66.5667 75.0103 67.66C75.0103 68.7267 75.237 69.58 75.6903 70.22C76.157 70.8467 76.777 71.16 77.5503 71.16ZM89.4988 73V70.2H92.4188V73H89.4988Z" fill="black"/>
</svg>
