<svg width="110" height="110" viewBox="0 0 110 110" fill="none" xmlns="http://www.w3.org/2000/svg">
<rect width="110" height="110" rx="10" fill="#1E1E1E"/>
<path d="M22.96 51.32C21.7867 51.32 20.7733 51.1133 19.92 50.7C19.0667 50.2867 18.3933 49.7133 17.9 48.98C17.42 48.2333 17.14 47.3667 17.06 46.38L19.7 46.22C19.78 46.8333 19.9533 47.3533 20.22 47.78C20.5 48.2067 20.8667 48.5333 21.32 48.76C21.7867 48.9733 22.3467 49.08 23 49.08C23.56 49.08 24.0333 49.0133 24.42 48.88C24.82 48.7333 25.12 48.5267 25.32 48.26C25.5333 47.98 25.64 47.64 25.64 47.24C25.64 46.88 25.5533 46.56 25.38 46.28C25.2067 45.9867 24.8733 45.7267 24.38 45.5C23.8867 45.26 23.1533 45.0267 22.18 44.8C21.0067 44.5333 20.0667 44.2333 19.36 43.9C18.6533 43.5533 18.14 43.1267 17.82 42.62C17.5 42.1 17.34 41.4533 17.34 40.68C17.34 39.8533 17.5467 39.1267 17.96 38.5C18.3733 37.86 18.96 37.3667 19.72 37.02C20.48 36.66 21.3933 36.48 22.46 36.48C23.5933 36.48 24.5533 36.6867 25.34 37.1C26.1267 37.5 26.7467 38.0533 27.2 38.76C27.6533 39.4667 27.9333 40.28 28.04 41.2L25.42 41.32C25.3533 40.8 25.1933 40.3467 24.94 39.96C24.7 39.5733 24.3667 39.2733 23.94 39.06C23.5267 38.8333 23.02 38.72 22.42 38.72C21.6733 38.72 21.08 38.8933 20.64 39.24C20.2133 39.5733 20 40.02 20 40.58C20 40.9667 20.0867 41.2867 20.26 41.54C20.4467 41.7933 20.7733 42.0133 21.24 42.2C21.7067 42.3733 22.36 42.56 23.2 42.76C24.4667 43.0267 25.4733 43.3667 26.22 43.78C26.9667 44.1933 27.5 44.6733 27.82 45.22C28.14 45.7667 28.3 46.3933 28.3 47.1C28.3 47.9667 28.08 48.72 27.64 49.36C27.2 49.9867 26.58 50.4733 25.78 50.82C24.98 51.1533 24.04 51.32 22.96 51.32ZM35.5752 51.24C34.5218 51.24 33.5952 51.0133 32.7952 50.56C32.0085 50.0933 31.3952 49.44 30.9552 48.6C30.5285 47.76 30.3152 46.78 30.3152 45.66C30.3152 44.5267 30.5285 43.5467 30.9552 42.72C31.3952 41.88 32.0085 41.2333 32.7952 40.78C33.5952 40.3133 34.5218 40.08 35.5752 40.08C36.6285 40.08 37.5485 40.3133 38.3352 40.78C39.1218 41.2333 39.7285 41.88 40.1552 42.72C40.5952 43.5467 40.8152 44.5267 40.8152 45.66C40.8152 46.78 40.5952 47.76 40.1552 48.6C39.7285 49.44 39.1218 50.0933 38.3352 50.56C37.5485 51.0133 36.6285 51.24 35.5752 51.24ZM35.5752 49.16C36.4018 49.16 37.0352 48.8533 37.4752 48.24C37.9285 47.6267 38.1552 46.7667 38.1552 45.66C38.1552 44.5667 37.9285 43.7133 37.4752 43.1C37.0352 42.4733 36.4018 42.16 35.5752 42.16C34.7485 42.16 34.1085 42.4733 33.6552 43.1C33.2018 43.7133 32.9752 44.5667 32.9752 45.66C32.9752 46.7667 33.2018 47.6267 33.6552 48.24C34.1085 48.8533 34.7485 49.16 35.5752 49.16ZM48.5306 51.24C47.784 51.24 47.1306 51.08 46.5706 50.76C46.024 50.44 45.5973 49.9933 45.2906 49.42L45.2306 51H42.7906V36.8H45.3506V41.84C45.644 41.3467 46.064 40.9333 46.6106 40.6C47.1573 40.2533 47.7973 40.08 48.5306 40.08C49.4506 40.08 50.244 40.3133 50.9106 40.78C51.5906 41.2333 52.1106 41.88 52.4706 42.72C52.844 43.5467 53.0306 44.5267 53.0306 45.66C53.0306 46.7933 52.844 47.78 52.4706 48.62C52.1106 49.4467 51.5906 50.0933 50.9106 50.56C50.244 51.0133 49.4506 51.24 48.5306 51.24ZM47.9506 49.16C48.684 49.16 49.2706 48.8533 49.7106 48.24C50.1506 47.6133 50.3706 46.7533 50.3706 45.66C50.3706 44.5533 50.1506 43.6933 49.7106 43.08C49.284 42.4667 48.704 42.16 47.9706 42.16C47.424 42.16 46.9506 42.3 46.5506 42.58C46.164 42.8467 45.864 43.24 45.6506 43.76C45.4506 44.28 45.3506 44.9133 45.3506 45.66C45.3506 46.38 45.4506 47.0067 45.6506 47.54C45.864 48.06 46.164 48.46 46.5506 48.74C46.9373 49.02 47.404 49.16 47.9506 49.16ZM55.0172 51V40.32H57.5772V51H55.0172ZM54.9772 38.9V36.62H57.6372V38.9H54.9772ZM64.0042 51C62.9376 51 62.1509 50.7533 61.6442 50.26C61.1509 49.7667 60.9042 48.9933 60.9042 47.94V37.82H63.4642V47.7C63.4642 48.1933 63.5709 48.54 63.7842 48.74C63.9976 48.9267 64.3309 49.02 64.7842 49.02H66.2842V51H64.0042ZM59.2242 42.3V40.32H66.2842V42.3H59.2242ZM17.6 73V58.8H23.1C24.7667 58.8 26.0667 59.2 27 60C27.9333 60.8 28.4 61.9067 28.4 63.32C28.4 64.2667 28.1867 65.0867 27.76 65.78C27.3333 66.46 26.7267 66.98 25.94 67.34C25.1533 67.7 24.2067 67.88 23.1 67.88H20.2V73H17.6ZM20.2 65.62H22.98C23.86 65.62 24.5333 65.4267 25 65.04C25.48 64.6533 25.72 64.08 25.72 63.32C25.72 62.5733 25.48 62.0133 25 61.64C24.5333 61.2533 23.86 61.06 22.98 61.06H20.2V65.62ZM30.5445 73V62.32H32.9445L33.0445 65.28L32.8245 65.24C32.9845 64.2133 33.2845 63.4733 33.7245 63.02C34.1779 62.5533 34.7912 62.32 35.5645 62.32H36.5445V64.52H35.5445C34.9979 64.52 34.5445 64.6 34.1845 64.76C33.8245 64.92 33.5512 65.1733 33.3645 65.52C33.1912 65.8533 33.1045 66.2933 33.1045 66.84V73H30.5445ZM41.1055 73.24C39.9855 73.24 39.0855 72.9867 38.4055 72.48C37.7255 71.96 37.3855 71.24 37.3855 70.32C37.3855 69.4 37.6721 68.68 38.2455 68.16C38.8188 67.64 39.6921 67.2667 40.8655 67.04L44.4055 66.34C44.4055 65.58 44.2321 65.0133 43.8855 64.64C43.5388 64.2533 43.0255 64.06 42.3455 64.06C41.7321 64.06 41.2455 64.2067 40.8855 64.5C40.5388 64.78 40.2988 65.1867 40.1655 65.72L37.5655 65.6C37.7788 64.4667 38.2988 63.6 39.1255 63C39.9521 62.3867 41.0255 62.08 42.3455 62.08C43.8655 62.08 45.0121 62.4667 45.7855 63.24C46.5721 64 46.9655 65.0933 46.9655 66.52V70.4C46.9655 70.68 47.0121 70.8733 47.1055 70.98C47.2121 71.0867 47.3655 71.14 47.5655 71.14H47.9055V73C47.8255 73.0267 47.6921 73.0467 47.5055 73.06C47.3321 73.0733 47.1521 73.08 46.9655 73.08C46.5255 73.08 46.1321 73.0133 45.7855 72.88C45.4388 72.7333 45.1721 72.4867 44.9855 72.14C44.7988 71.78 44.7055 71.2933 44.7055 70.68L44.9255 70.84C44.8188 71.3067 44.5855 71.7267 44.2255 72.1C43.8788 72.46 43.4388 72.74 42.9055 72.94C42.3721 73.14 41.7721 73.24 41.1055 73.24ZM41.6255 71.38C42.1988 71.38 42.6921 71.2667 43.1055 71.04C43.5188 70.8133 43.8388 70.5 44.0655 70.1C44.2921 69.7 44.4055 69.2267 44.4055 68.68V68.08L41.6455 68.64C41.0721 68.76 40.6588 68.94 40.4055 69.18C40.1655 69.4067 40.0455 69.7067 40.0455 70.08C40.0455 70.4933 40.1788 70.8133 40.4455 71.04C40.7255 71.2667 41.1188 71.38 41.6255 71.38ZM53.7908 73.24C52.7374 73.24 51.8508 73.0867 51.1308 72.78C50.4241 72.4733 49.8774 72.0467 49.4908 71.5C49.1041 70.9533 48.8841 70.3333 48.8308 69.64L51.4508 69.52C51.5441 70.08 51.7774 70.5133 52.1508 70.82C52.5241 71.1267 53.0774 71.28 53.8108 71.28C54.4108 71.28 54.8774 71.1867 55.2108 71C55.5574 70.8 55.7308 70.4933 55.7308 70.08C55.7308 69.84 55.6708 69.64 55.5508 69.48C55.4308 69.32 55.2041 69.18 54.8708 69.06C54.5374 68.94 54.0441 68.82 53.3908 68.7C52.2974 68.5133 51.4374 68.2867 50.8108 68.02C50.1841 67.74 49.7374 67.3933 49.4708 66.98C49.2174 66.5667 49.0908 66.0533 49.0908 65.44C49.0908 64.44 49.4708 63.6333 50.2308 63.02C51.0041 62.3933 52.1308 62.08 53.6108 62.08C54.5708 62.08 55.3774 62.24 56.0308 62.56C56.6841 62.8667 57.1908 63.2933 57.5508 63.84C57.9241 64.3733 58.1574 64.9867 58.2508 65.68L55.6708 65.8C55.6041 65.44 55.4841 65.1267 55.3108 64.86C55.1374 64.5933 54.9041 64.3933 54.6108 64.26C54.3174 64.1133 53.9708 64.04 53.5708 64.04C52.9708 64.04 52.5174 64.16 52.2108 64.4C51.9041 64.64 51.7508 64.96 51.7508 65.36C51.7508 65.64 51.8174 65.8733 51.9508 66.06C52.0974 66.2467 52.3308 66.4 52.6508 66.52C52.9708 66.6267 53.3974 66.7267 53.9308 66.82C55.0508 66.9933 55.9308 67.22 56.5708 67.5C57.2241 67.7667 57.6841 68.1133 57.9508 68.54C58.2308 68.9533 58.3708 69.4533 58.3708 70.04C58.3708 70.72 58.1774 71.3 57.7908 71.78C57.4174 72.26 56.8841 72.6267 56.1908 72.88C55.5108 73.12 54.7108 73.24 53.7908 73.24ZM63.625 73.24C62.505 73.24 61.605 72.9867 60.925 72.48C60.245 71.96 59.905 71.24 59.905 70.32C59.905 69.4 60.1917 68.68 60.765 68.16C61.3383 67.64 62.2117 67.2667 63.385 67.04L66.925 66.34C66.925 65.58 66.7517 65.0133 66.405 64.64C66.0583 64.2533 65.545 64.06 64.865 64.06C64.2517 64.06 63.765 64.2067 63.405 64.5C63.0583 64.78 62.8183 65.1867 62.685 65.72L60.085 65.6C60.2983 64.4667 60.8183 63.6 61.645 63C62.4717 62.3867 63.545 62.08 64.865 62.08C66.385 62.08 67.5317 62.4667 68.305 63.24C69.0917 64 69.485 65.0933 69.485 66.52V70.4C69.485 70.68 69.5317 70.8733 69.625 70.98C69.7317 71.0867 69.885 71.14 70.085 71.14H70.425V73C70.345 73.0267 70.2117 73.0467 70.025 73.06C69.8517 73.0733 69.6717 73.08 69.485 73.08C69.045 73.08 68.6517 73.0133 68.305 72.88C67.9583 72.7333 67.6917 72.4867 67.505 72.14C67.3183 71.78 67.225 71.2933 67.225 70.68L67.445 70.84C67.3383 71.3067 67.105 71.7267 66.745 72.1C66.3983 72.46 65.9583 72.74 65.425 72.94C64.8917 73.14 64.2917 73.24 63.625 73.24ZM64.145 71.38C64.7183 71.38 65.2117 71.2667 65.625 71.04C66.0383 70.8133 66.3583 70.5 66.585 70.1C66.8117 69.7 66.925 69.2267 66.925 68.68V68.08L64.165 68.64C63.5917 68.76 63.1783 68.94 62.925 69.18C62.685 69.4067 62.565 69.7067 62.565 70.08C62.565 70.4933 62.6983 70.8133 62.965 71.04C63.245 71.2667 63.6383 71.38 64.145 71.38ZM75.7703 73.24C74.8636 73.24 74.077 73.0133 73.4103 72.56C72.757 72.1067 72.2503 71.46 71.8903 70.62C71.5303 69.78 71.3503 68.7933 71.3503 67.66C71.3503 66.5267 71.5303 65.54 71.8903 64.7C72.2503 63.86 72.7636 63.2133 73.4303 62.76C74.097 62.3067 74.877 62.08 75.7703 62.08C76.517 62.08 77.1703 62.2333 77.7303 62.54C78.3036 62.8467 78.737 63.28 79.0303 63.84V58.8H81.5903V73H79.1503L79.0903 71.42C78.797 71.9933 78.357 72.44 77.7703 72.76C77.1836 73.08 76.517 73.24 75.7703 73.24ZM76.5503 71.16C77.0836 71.16 77.5303 71.0267 77.8903 70.76C78.2636 70.4933 78.5436 70.1 78.7303 69.58C78.9303 69.0467 79.0303 68.4067 79.0303 67.66C79.0303 66.9 78.9303 66.26 78.7303 65.74C78.5436 65.22 78.2636 64.8267 77.8903 64.56C77.5303 64.2933 77.0836 64.16 76.5503 64.16C75.777 64.16 75.157 64.4733 74.6903 65.1C74.237 65.7133 74.0103 66.5667 74.0103 67.66C74.0103 68.7267 74.237 69.58 74.6903 70.22C75.157 70.8467 75.777 71.16 76.5503 71.16ZM88.4988 73V70.2H91.4188V73H88.4988Z" fill="#D9D9D9"/>
</svg>
